<?xml version="1.0" standalone="no"?>
<!DOCTYPE svg PUBLIC "-//W3C//DTD SVG 20010904//EN"
 "http://www.w3.org/TR/2001/REC-SVG-20010904/DTD/svg10.dtd">
<svg version="1.0" xmlns="http://www.w3.org/2000/svg"
 width="700.000000pt" height="700.000000pt" viewBox="0 0 700.000000 700.000000"
 preserveAspectRatio="xMidYMid meet">
<metadata>
Created by potrace 1.14, written by Peter Selinger 2001-2017
</metadata>
<g transform="translate(0.000000,700.000000) scale(0.100000,-0.100000)"
fill="#000000" stroke="none">
<path d="M3470 6702 c-40 -13 -52 -68 -22 -95 37 -34 95 -11 95 36 0 43 -35
71 -73 59z"/>
<path d="M3656 6669 c-18 -58 -23 -99 -12 -100 50 -3 173 -53 244 -98 73 -47
150 -124 200 -199 41 -61 92 -170 92 -195 0 -13 6 -13 59 0 l59 15 -19 56
c-77 223 -253 404 -479 495 -87 34 -138 43 -144 26z"/>
<path d="M3190 6643 c-244 -99 -420 -299 -491 -558 -29 -106 -31 -276 -5 -390
17 -73 82 -235 94 -235 9 0 92 50 92 56 0 3 -9 23 -21 46 -47 92 -62 159 -65
289 -4 136 11 217 62 328 75 166 252 322 422 372 41 12 42 13 36 48 -14 84
-21 86 -124 44z"/>
<path d="M3415 6429 c-162 -25 -326 -138 -398 -274 -30 -56 -32 -65 -14 -65 7
0 28 -9 48 -19 l36 -20 40 63 c61 96 153 162 265 191 63 17 186 12 243 -9 l40
-15 23 51 c26 58 26 59 -53 82 -61 18 -163 25 -230 15z"/>
<path d="M3809 6303 c-26 -7 -42 -45 -30 -75 18 -48 84 -48 102 -1 12 33 12
36 -11 61 -20 22 -29 24 -61 15z"/>
<path d="M3447 6203 c-14 -4 -17 -11 -12 -30 3 -14 9 -38 12 -54 5 -27 9 -29
52 -29 118 -1 213 -95 215 -212 0 -47 1 -49 36 -58 76 -19 74 -20 78 41 8 127
-68 254 -185 310 -63 30 -147 43 -196 32z"/>
<path d="M3940 6129 c-25 -15 -45 -32 -45 -36 0 -4 11 -35 24 -68 27 -71 35
-184 16 -253 -33 -126 -126 -240 -240 -293 -36 -17 -65 -35 -65 -41 0 -33 24
-98 37 -98 8 0 44 15 80 32 121 61 239 191 278 307 49 147 45 297 -12 418
l-28 61 -45 -29z"/>
<path d="M3296 6131 c-29 -11 -46 -50 -33 -78 29 -64 125 -23 102 43 -11 30
-40 45 -69 35z"/>
<path d="M3182 5960 c-19 -53 -8 -163 22 -224 38 -78 121 -151 198 -174 54
-17 152 -22 165 -9 3 3 -1 29 -7 59 l-12 53 -55 2 c-128 4 -228 127 -201 246
5 22 7 41 6 42 -8 5 -90 35 -97 35 -5 0 -14 -13 -19 -30z"/>
<path d="M2956 5944 c-20 -20 -21 -68 -1 -84 22 -18 66 -15 82 6 41 56 -32
127 -81 78z"/>
<path d="M4230 5940 c-23 -23 -24 -30 -8 -65 11 -24 24 -30 58 -26 19 3 50 38
50 57 0 21 -37 54 -60 54 -11 0 -29 -9 -40 -20z"/>
<path d="M3000 5757 c-54 -14 -54 -20 -3 -127 45 -94 159 -212 245 -253 67
-32 74 -33 81 -9 3 9 10 32 15 49 10 32 10 33 -49 64 -33 18 -81 54 -107 80
-47 49 -112 159 -112 192 0 19 -8 20 -70 4z"/>
<path d="M3670 5737 c-49 -25 -30 -107 26 -107 52 0 75 74 32 104 -27 19 -26
19 -58 3z"/>
<path d="M4190 5704 c-6 -14 -10 -31 -10 -39 0 -7 -21 -55 -47 -106 -103 -206
-320 -360 -543 -386 -97 -11 -185 -6 -270 17 -58 15 -158 59 -189 82 -13 10
-30 18 -37 18 -14 0 -64 -67 -64 -85 0 -22 188 -115 262 -129 13 -2 43 -9 68
-15 71 -17 283 -7 360 17 255 78 458 265 550 505 47 123 47 123 -5 136 -60 15
-64 14 -75 -15z"/>
<path d="M3450 5410 c-26 -26 -25 -54 2 -79 44 -42 113 10 85 64 -20 40 -56
46 -87 15z"/>
<path d="M2897 5392 c-10 -10 -17 -28 -17 -40 0 -19 23 -51 38 -53 4 0 15 -2
24 -4 20 -4 47 24 53 53 5 26 -29 62 -59 62 -13 0 -30 -8 -39 -18z"/>
<path d="M3240 4863 c-49 -18 -42 -73 10 -73 38 0 55 28 34 58 -16 23 -19 24
-44 15z"/>
<path d="M2970 4839 c-9 -15 -8 -24 1 -35 26 -32 69 -1 49 35 -6 12 -17 21
-25 21 -8 0 -19 -9 -25 -21z"/>
<path d="M3461 4842 c-13 -25 5 -52 34 -52 18 0 26 7 31 24 3 14 3 30 -1 35
-10 17 -53 13 -64 -7z"/>
<path d="M3714 4846 c-10 -26 1 -51 22 -54 27 -4 47 21 39 48 -7 24 -53 28
-61 6z"/>
<path d="M3972 4844 c-23 -41 19 -74 49 -38 9 11 10 20 2 32 -14 24 -40 26
-51 6z"/>
<path d="M2727 4834 c-8 -8 1 -24 14 -24 5 0 9 7 9 15 0 15 -12 20 -23 9z"/>
<path d="M4235 4829 c-4 -6 -5 -13 -2 -16 7 -7 27 6 27 18 0 12 -17 12 -25 -2z"/>
<path d="M3193 4665 c-50 -21 -76 -63 -70 -115 5 -43 19 -62 73 -97 10 -7 15
-12 9 -11 -23 4 -63 -26 -88 -65 -15 -22 -27 -34 -27 -25 0 29 -58 68 -100 68
-56 0 -110 -52 -110 -106 0 -88 76 -143 153 -110 20 8 42 26 49 40 12 28 28
35 28 12 0 -8 14 -28 30 -46 l30 -32 -30 -34 c-16 -19 -30 -42 -30 -52 0 -9
-9 1 -19 23 -32 70 -115 88 -173 36 -27 -24 -32 -35 -32 -73 1 -58 15 -82 60
-103 51 -24 107 -8 136 41 20 34 35 46 25 20 -6 -16 42 -89 69 -104 16 -9 15
-10 -5 -17 -31 -10 -61 -63 -61 -108 0 -46 22 -86 60 -112 28 -19 28 -19 8
-30 -35 -17 -62 -62 -64 -107 -2 -49 16 -86 56 -113 28 -19 28 -19 7 -30 -12
-6 -32 -26 -45 -45 -40 -59 -16 -150 47 -180 l24 -11 -32 -20 c-68 -42 -77
-143 -18 -199 18 -17 39 -30 47 -30 8 0 1 -9 -17 -20 -40 -24 -64 -60 -67
-102 -5 -57 43 -126 89 -128 15 -1 12 -5 -15 -20 -79 -42 -96 -136 -35 -197
l35 -35 -29 -27 c-39 -36 -48 -74 -30 -124 19 -55 58 -82 116 -80 40 0 52 6
80 37 27 30 33 44 33 82 0 40 -5 51 -38 84 -32 32 -35 39 -21 43 26 7 59 66
59 105 0 52 -23 87 -73 113 l-27 15 34 12 c25 9 40 25 55 55 12 23 21 34 21
25 0 -10 16 -33 36 -53 l36 -36 -25 -20 c-69 -54 -50 -179 32 -211 l26 -10
-37 -19 c-65 -34 -86 -105 -48 -166 34 -56 101 -74 159 -44 84 45 80 182 -7
213 l-33 12 36 19 c37 19 78 73 68 90 -3 6 -1 7 5 3 7 -4 12 -13 12 -21 0 -20
59 -75 81 -75 29 0 23 -17 -8 -25 -104 -26 -102 -195 2 -224 102 -28 189 75
141 168 -19 36 -39 52 -79 61 l-32 8 33 7 c75 17 117 98 85 163 -48 96 -173
101 -215 10 -16 -35 -20 -35 -37 3 -7 17 -24 35 -37 41 -30 14 -30 21 1 38 14
7 30 28 37 47 7 18 15 33 18 33 3 0 14 -13 23 -30 23 -39 49 -52 102 -52 80 0
135 68 121 147 -7 33 -55 85 -79 85 -7 0 2 11 20 25 37 30 57 81 48 127 -8 39
-20 57 -59 82 l-29 18 30 14 c83 41 85 172 3 220 l-29 18 28 12 c80 34 89 151
15 212 l-34 29 25 11 c34 16 65 69 65 112 0 41 -29 94 -61 111 l-22 12 22 11
c74 40 81 158 13 219 -19 17 -19 18 14 51 19 19 34 42 34 52 0 13 7 8 25 -18
65 -96 207 -50 207 68 0 107 -141 150 -203 63 l-22 -31 -15 31 c-32 68 -129
93 -195 52 -19 -12 -38 -29 -41 -37 -5 -13 -12 -11 -38 15 -17 17 -40 33 -50
37 -16 5 -14 8 13 27 82 55 52 183 -46 201 -105 20 -167 -114 -86 -186 35 -31
38 -38 17 -38 -8 0 -28 -13 -44 -29 l-29 -30 -29 30 c-16 16 -39 32 -51 36
-23 5 -22 6 9 22 89 44 66 168 -35 190 -22 5 -45 4 -64 -4z m485 -461 c2 -1
-11 -16 -29 -33 l-31 -32 -28 28 -28 28 27 31 26 31 30 -26 c16 -14 31 -27 33
-27z m-286 -43 l-27 -29 -30 31 -31 31 29 26 29 26 28 -28 28 -28 -26 -29z
m10 -247 l-33 -33 -35 34 c-31 31 -32 35 -16 44 10 5 23 20 30 33 l13 24 37
-35 37 -35 -33 -32z m276 45 c23 -13 23 -13 2 -21 -11 -4 -28 -20 -37 -36
l-16 -29 -36 36 -36 36 35 35 35 35 14 -22 c8 -12 26 -27 39 -34z m-248 -256
c13 -6 8 -16 -27 -50 -24 -24 -43 -36 -43 -28 0 8 -15 26 -33 41 l-33 26 35
36 36 37 25 -27 c14 -14 32 -30 40 -35z m269 -3 c10 0 5 -7 -13 -19 -16 -11
-39 -32 -52 -48 -13 -15 -23 -23 -24 -16 0 14 -43 59 -61 65 -6 2 5 21 27 43
l39 40 34 -32 c19 -18 41 -33 50 -33z m-18 -238 l32 -20 -24 -12 c-29 -16 -58
-50 -59 -70 0 -8 -9 -1 -20 17 -10 18 -31 40 -45 49 l-26 17 23 15 c33 23 43
34 52 57 7 19 8 19 21 -6 8 -15 29 -36 46 -47z m-264 -45 c-16 -10 -31 -27
-34 -38 -7 -25 -17 -24 -32 5 -7 13 -24 30 -37 37 -13 7 -24 15 -24 19 0 4 11
12 24 19 13 7 29 24 36 37 l13 23 41 -42 41 -42 -28 -18z m-37 -162 c0 -13 40
-50 61 -57 6 -2 -8 -22 -30 -45 l-42 -42 -43 43 -42 43 28 16 c15 9 33 27 39
41 12 26 29 26 29 1z m302 -50 l29 -12 -28 -18 c-35 -23 -62 -55 -63 -75 0 -8
-7 0 -15 18 -8 18 -28 40 -45 50 -16 9 -30 19 -30 22 0 3 14 13 30 22 17 9 35
29 42 43 l12 26 20 -32 c11 -17 33 -37 48 -44z m-7 -257 l23 -10 -39 -38 c-21
-20 -39 -45 -39 -56 -1 -13 -5 -9 -14 12 -16 36 -51 64 -81 64 -15 0 -10 6 19
23 22 12 46 36 55 54 l16 31 18 -34 c10 -19 29 -40 42 -46z m-290 42 c8 -16
31 -38 50 -48 l36 -18 -34 -12 c-22 -8 -41 -25 -53 -47 l-19 -35 -15 31 c-17
32 -68 71 -82 63 -4 -3 -8 -3 -8 0 0 3 16 12 35 20 20 9 43 29 53 46 9 16 18
30 19 30 1 0 9 -13 18 -30z"/>
<path d="M3688 4664 c-31 -16 -58 -61 -58 -96 0 -35 49 -88 90 -97 119 -26
184 142 75 194 -41 19 -72 19 -107 -1z"/>
<path d="M2966 4659 c-63 -18 -90 -74 -61 -129 40 -77 144 -67 175 15 23 62
-48 133 -114 114z"/>
<path d="M3953 4654 c-37 -19 -57 -61 -48 -102 8 -40 35 -63 82 -69 68 -9 120
63 93 128 -12 29 -55 59 -82 59 -7 0 -27 -7 -45 -16z"/>
<path d="M4220 4600 c-17 -17 -18 -24 -10 -41 17 -31 41 -35 61 -10 34 42 -14
88 -51 51z"/>
<path d="M2713 4603 c-17 -6 -17 -48 0 -61 14 -12 56 -5 58 9 1 5 2 15 3 22 5
29 -27 44 -61 30z"/>
<path d="M2718 4359 c-34 -19 -16 -79 23 -79 44 0 56 49 21 78 -19 14 -22 14
-44 1z"/>
<path d="M4218 4359 c-33 -19 -11 -88 27 -87 26 0 45 21 45 49 0 22 -6 32 -26
39 -30 12 -25 12 -46 -1z"/>
<path d="M3972 4179 c-42 -9 -79 -43 -87 -79 -7 -32 13 -87 41 -112 54 -48
149 -22 172 47 28 85 -40 163 -126 144z"/>
<path d="M4219 4101 c-21 -16 -22 -22 -11 -45 13 -28 49 -35 70 -14 18 18 14
56 -7 68 -25 13 -25 13 -52 -9z"/>
<path d="M2705 4089 c-11 -32 25 -65 54 -50 38 21 20 71 -25 71 -14 0 -25 -8
-29 -21z"/>
<path d="M2942 3914 c-56 -23 -74 -103 -37 -160 8 -13 33 -29 55 -35 53 -16
103 6 126 55 46 95 -45 182 -144 140z"/>
<path d="M3945 3921 c-55 -23 -79 -95 -50 -150 45 -89 189 -62 208 38 15 79
-77 145 -158 112z"/>
<path d="M2712 3848 c-16 -16 -15 -33 4 -52 21 -22 41 -20 54 4 24 44 -23 83
-58 48z"/>
<path d="M4213 3844 c-8 -21 9 -48 32 -53 26 -5 47 26 34 50 -12 23 -57 25
-66 3z"/>
<path d="M2963 3672 c-28 -4 -70 -46 -75 -76 -6 -32 15 -94 39 -111 79 -60
192 15 167 111 -14 57 -65 86 -131 76z"/>
<path d="M3952 3664 c-39 -16 -62 -51 -62 -94 0 -124 183 -145 206 -23 16 84
-65 150 -144 117z"/>
<path d="M2710 3596 c-22 -22 -3 -65 28 -60 6 1 16 2 21 3 15 2 21 31 11 51
-10 20 -43 23 -60 6z"/>
<path d="M4216 3594 c-19 -18 -19 -20 -6 -45 16 -29 58 -25 70 7 18 46 -29 74
-64 38z"/>
<path d="M2920 3392 c-59 -60 -32 -163 47 -178 75 -14 139 50 122 123 -11 50
-39 74 -92 80 -41 5 -49 2 -77 -25z"/>
<path d="M3929 3391 c-37 -38 -42 -92 -12 -137 36 -56 138 -52 168 6 30 59 16
119 -35 145 -46 24 -87 19 -121 -14z"/>
<path d="M2715 3340 c-22 -25 -4 -63 28 -58 31 4 37 63 8 71 -12 3 -26 -2 -36
-13z"/>
<path d="M4220 3342 c-19 -16 -21 -22 -11 -40 19 -36 71 -26 71 14 0 34 -32
48 -60 26z"/>
<path d="M2938 3154 c-59 -32 -65 -109 -11 -162 7 -8 31 -16 53 -19 85 -12
146 74 104 146 -30 50 -92 65 -146 35z"/>
<path d="M3955 3161 c-48 -20 -72 -74 -55 -125 24 -74 117 -93 171 -35 45 48
38 116 -16 149 -34 21 -66 24 -100 11z"/>
<path d="M2726 3094 c-19 -19 -20 -36 -4 -52 18 -18 45 -14 62 10 30 42 -21
79 -58 42z"/>
<path d="M4233 3098 c-25 -12 -30 -37 -11 -56 18 -18 45 -15 68 8 16 16 18 25
10 40 -12 22 -33 24 -67 8z"/>
<path d="M2963 2909 c-96 -28 -97 -170 -1 -194 36 -9 95 11 113 38 36 57 18
128 -39 152 -20 8 -37 15 -38 14 -2 0 -17 -5 -35 -10z"/>
<path d="M3951 2902 c-37 -17 -51 -46 -51 -100 0 -41 37 -91 68 -93 9 -1 24
-2 32 -3 30 -3 72 26 86 59 21 51 17 81 -13 115 -33 37 -77 44 -122 22z"/>
<path d="M2711 2828 c-10 -27 3 -48 30 -48 24 0 40 30 28 53 -14 24 -48 21
-58 -5z"/>
<path d="M4219 2834 c-16 -20 -1 -48 29 -52 25 -4 39 32 22 53 -16 19 -34 19
-51 -1z"/>
<path d="M2937 2649 c-28 -16 -49 -68 -43 -104 7 -35 38 -69 74 -80 53 -16
122 37 122 95 0 29 -26 77 -49 90 -25 13 -81 12 -104 -1z"/>
<path d="M3929 2631 c-41 -42 -39 -83 6 -128 32 -32 40 -35 77 -30 127 17 107
187 -23 187 -20 0 -40 -10 -60 -29z"/>
<path d="M2716 2585 c-20 -21 -5 -55 25 -55 24 0 36 27 22 48 -14 23 -29 25
-47 7z"/>
<path d="M4226 2584 c-20 -19 -5 -54 24 -54 23 0 36 36 20 55 -16 19 -25 19
-44 -1z"/>
<path d="M2943 2400 c-12 -5 -28 -22 -36 -37 -25 -49 -6 -103 45 -129 26 -13
38 -14 69 -5 46 14 67 45 64 96 -4 68 -71 103 -142 75z"/>
<path d="M3938 2395 c-76 -42 -38 -175 50 -175 44 0 68 14 87 50 23 44 19 78
-14 111 -33 33 -78 38 -123 14z"/>
<path d="M2719 2334 c-9 -11 -10 -20 -2 -32 16 -25 38 -20 41 9 4 31 -20 45
-39 23z"/>
<path d="M4231 2337 c-16 -16 -14 -44 4 -51 18 -7 46 20 39 39 -8 19 -29 26
-43 12z"/>
<path d="M3195 2171 c-57 -25 -83 -97 -55 -158 28 -61 94 -86 153 -58 80 38
90 154 18 201 -29 20 -87 27 -116 15z"/>
<path d="M3443 2166 c-58 -26 -80 -90 -54 -154 34 -83 158 -90 204 -13 59 101
-43 214 -150 167z"/>
<path d="M3704 2173 c-12 -2 -34 -18 -50 -34 -23 -24 -29 -39 -29 -76 0 -40 4
-49 38 -78 31 -27 46 -33 78 -32 86 4 143 92 104 163 -26 49 -77 70 -141 57z"/>
<path d="M2943 2141 c-70 -44 -48 -152 34 -167 45 -8 82 12 100 54 11 27 11
37 0 65 -26 61 -80 81 -134 48z"/>
<path d="M3953 2144 c-57 -28 -65 -94 -18 -141 43 -43 85 -44 126 -4 50 50 32
125 -36 151 -33 13 -34 13 -72 -6z"/>
<path d="M2716 2073 c-5 -11 0 -22 11 -31 15 -11 20 -10 30 4 6 9 9 22 6 30
-7 20 -40 17 -47 -3z"/>
<path d="M4223 2074 c-3 -8 1 -22 9 -30 13 -13 16 -13 27 0 7 9 11 23 7 31 -7
20 -35 19 -43 -1z"/>
<path d="M3181 1909 c-38 -23 -53 -52 -53 -101 1 -51 24 -86 69 -105 51 -21
95 -10 133 33 27 32 31 41 26 81 -5 45 -24 76 -59 94 -33 18 -85 17 -116 -2z"/>
<path d="M3428 1906 c-41 -27 -60 -86 -44 -135 16 -49 57 -76 112 -75 83 2
136 86 101 160 -32 65 -111 89 -169 50z"/>
<path d="M3693 1915 c-42 -18 -63 -52 -63 -103 0 -135 205 -152 227 -19 15 94
-74 160 -164 122z"/>
<path d="M2924 1873 c-53 -48 -16 -141 58 -148 30 -3 44 2 68 25 40 38 41 81
0 121 -36 36 -88 37 -126 2z"/>
<path d="M3931 1869 c-35 -35 -39 -67 -14 -110 34 -57 118 -55 153 4 57 94
-61 184 -139 106z"/>
<path d="M2723 1829 c-13 -13 -6 -39 11 -39 22 0 37 22 25 37 -14 16 -22 16
-36 2z"/>
<path d="M4224 1825 c-8 -20 4 -35 27 -35 23 0 26 35 3 44 -22 8 -24 8 -30 -9z"/>
<path d="M3215 1672 c-133 -30 -111 -222 25 -222 38 0 84 25 100 54 47 89 -28
190 -125 168z"/>
<path d="M3466 1669 c-41 -11 -75 -47 -82 -87 -20 -105 113 -173 190 -96 79
80 1 213 -108 183z"/>
<path d="M3719 1672 c-15 -2 -39 -17 -55 -33 -24 -25 -29 -39 -29 -80 0 -44 4
-54 33 -80 57 -51 143 -33 176 36 40 84 -28 170 -125 157z"/>
<path d="M2959 1638 c-83 -28 -56 -168 32 -168 36 0 89 47 89 80 0 33 -27 78
-52 86 -35 12 -41 12 -69 2z"/>
<path d="M3975 1642 c-38 -8 -65 -43 -65 -83 0 -79 93 -112 148 -52 57 62 1
153 -83 135z"/>
<path d="M2720 1561 c0 -15 6 -21 21 -21 25 0 22 33 -4 38 -12 2 -17 -3 -17
-17z"/>
<path d="M4227 1573 c-3 -5 -2 -15 3 -22 10 -17 43 -6 38 12 -6 15 -34 22 -41
10z"/>
<path d="M3174 1400 c-81 -53 -49 -181 50 -197 110 -18 170 114 89 196 -25 24
-103 25 -139 1z"/>
<path d="M3430 1404 c-39 -27 -50 -45 -50 -87 0 -86 85 -139 163 -102 39 18
57 50 57 101 0 52 -53 104 -107 104 -21 0 -50 -7 -63 -16z"/>
<path d="M3695 1411 c-34 -15 -57 -49 -62 -93 -12 -102 113 -161 186 -87 36
35 43 78 21 127 -24 54 -87 76 -145 53z"/>
<path d="M2978 1392 c-60 -7 -91 -100 -47 -141 28 -26 62 -31 99 -13 81 39 38
166 -52 154z"/>
<path d="M3953 1382 c-76 -36 -45 -152 40 -152 52 0 87 33 87 80 0 38 -27 79
-54 81 -6 0 -18 2 -26 3 -8 2 -29 -3 -47 -12z"/>
<path d="M2723 1315 c-7 -20 2 -29 21 -22 9 4 13 13 10 22 -8 19 -23 19 -31 0z"/>
<path d="M4237 1323 c-12 -11 -8 -23 8 -23 8 0 15 7 15 15 0 16 -12 20 -23 8z"/>
<path d="M3204 1160 c-80 -33 -86 -158 -8 -195 115 -54 214 102 113 177 -30
23 -76 30 -105 18z"/>
<path d="M3444 1156 c-52 -23 -73 -110 -39 -162 29 -45 111 -55 158 -19 30 22
47 84 33 119 -24 58 -95 88 -152 62z"/>
<path d="M3718 1162 c-62 -8 -105 -90 -76 -148 52 -107 208 -76 208 42 0 67
-60 115 -132 106z"/>
<path d="M3973 1135 c-59 -25 -73 -98 -27 -140 42 -39 102 -28 127 22 20 38 2
91 -38 114 -26 15 -34 16 -62 4z"/>
<path d="M2954 1127 c-51 -26 -60 -89 -19 -127 50 -47 135 -12 135 55 0 28
-28 73 -48 76 -31 6 -52 5 -68 -4z"/>
<path d="M2727 1063 c-12 -11 -8 -23 8 -23 8 0 15 7 15 15 0 16 -12 20 -23 8z"/>
<path d="M4232 1058 c6 -18 28 -21 28 -4 0 9 -7 16 -16 16 -9 0 -14 -5 -12
-12z"/>
<path d="M3168 881 c-27 -24 -32 -36 -32 -74 -1 -52 20 -82 71 -103 28 -12 38
-12 73 2 76 31 93 113 36 170 -46 46 -101 48 -148 5z"/>
<path d="M3418 881 c-28 -25 -32 -35 -32 -75 2 -116 145 -152 199 -51 57 104
-78 206 -167 126z"/>
<path d="M3668 881 c-28 -25 -32 -35 -32 -75 1 -53 21 -81 71 -102 66 -28 143
27 143 101 0 92 -112 139 -182 76z"/>
<path d="M2963 883 c-30 -6 -59 -68 -45 -99 38 -81 152 -58 152 31 0 49 -48
80 -107 68z"/>
<path d="M3954 878 c-24 -11 -44 -48 -44 -78 0 -35 43 -73 83 -73 62 0 97 49
77 108 -16 47 -68 67 -116 43z"/>
<path d="M2725 811 c-6 -11 9 -23 19 -14 9 9 7 23 -3 23 -6 0 -12 -4 -16 -9z"/>
<path d="M4236 811 c-4 -5 -2 -12 3 -15 5 -4 12 -2 15 3 4 5 2 12 -3 15 -5 4
-12 2 -15 -3z"/>
<path d="M3203 621 c-67 -41 -49 -125 29 -138 39 -6 84 24 90 60 6 35 -18 74
-53 86 -18 6 -32 11 -33 11 -1 0 -15 -9 -33 -19z"/>
<path d="M3458 624 c-53 -28 -63 -80 -23 -119 69 -70 186 27 122 101 -27 31
-63 37 -99 18z"/>
<path d="M3713 629 c-27 -10 -53 -47 -53 -75 0 -30 35 -71 64 -76 33 -7 82 24
90 55 15 62 -43 118 -101 96z"/>
<path d="M3954 595 c-40 -40 -13 -95 47 -95 50 0 71 59 34 96 -31 31 -50 30
-81 -1z"/>
<path d="M2953 598 c-32 -41 -8 -98 41 -98 27 0 56 29 56 57 0 42 -73 72 -97
41z"/>
<path d="M3485 310 c-3 -5 -1 -10 4 -10 6 0 11 5 11 10 0 6 -2 10 -4 10 -3 0
-8 -4 -11 -10z"/>
<path d="M3985 310 c-3 -5 -1 -10 4 -10 6 0 11 5 11 10 0 6 -2 10 -4 10 -3 0
-8 -4 -11 -10z"/>
<path d="M4235 310 c-3 -5 -1 -10 4 -10 6 0 11 5 11 10 0 6 -2 10 -4 10 -3 0
-8 -4 -11 -10z"/>
<path d="M2730 299 c0 -5 5 -7 10 -4 6 3 10 8 10 11 0 2 -4 4 -10 4 -5 0 -10
-5 -10 -11z"/>
<path d="M3235 300 c3 -5 8 -10 11 -10 2 0 4 5 4 10 0 6 -5 10 -11 10 -5 0 -7
-4 -4 -10z"/>
</g>
</svg>
